<svg xmlns="http://www.w3.org/2000/svg" viewBox="0 0 8688 2896" width="2172" height="724" role="img" aria-label="Kaaveri Tours and Travels"><path fill="#ffffff" fill-rule="evenodd" d="M6759.00,1896.40C6756.52,1896.20 6748.88,1895.55 6742.00,1894.96C6593.51,1882.24 6467.57,1818.91 6392.08,1719.00C6315.92,1618.20 6287.52,1482.36 6319.54,1371.99C6387.80,1136.65 6639.11,993.41 6925.68,1026.50C7156.31,1053.13 7286.70,1181.52 7314.13,1409.00C7317.03,1432.98 7317.68,1520.22 7315.00,1525.41C7311.14,1532.89 7322.98,1532.22 7183.11,1532.90C7054.06,1533.52 7051.47,1533.61 7058.64,1537.31C7062.58,1539.35 7142.49,1565.02 7174.50,1574.54C7184.95,1577.65 7200.33,1582.38 7208.68,1585.05C7217.04,1587.73 7236.16,1593.57 7251.18,1598.05C7307.29,1614.75 7305.00,1613.78 7305.00,1620.75C7305.00,1631.26 7273.02,1681.62 7246.74,1712.50C7160.50,1813.82 7029.75,1877.02 6871.00,1894.10C6852.58,1896.08 6774.67,1897.68 6759.00,1896.40ZM8075.68,1886.58C8070.95,1885.21 8065.50,1880.85 8063.34,1876.71C8060.22,1870.75 8059.95,1831.54 8060.23,1435.89L8060.50,1045.50L8062.58,1041.00C8065.13,1035.49 8070.67,1030.46 8075.72,1029.06C8081.95,1027.33 8364.14,1027.61 8368.30,1029.35C8372.63,1031.16 8377.68,1037.08 8378.96,1041.87C8381.01,1049.45 8379.86,1872.84 8377.80,1876.60C8375.34,1881.10 8369.55,1885.82 8365.77,1886.41C8358.74,1887.51 8079.46,1887.67 8075.68,1886.58ZM5730.42,1885.58C5725.92,1883.62 5721.78,1878.04 5717.53,1868.20C5715.47,1863.41 5710.95,1853.20 5707.50,1845.50C5697.58,1823.39 5674.88,1772.25 5660.44,1739.50C5640.48,1694.19 5613.59,1634.18 5560.30,1516.00C5551.25,1495.92 5538.53,1467.35 5532.04,1452.50C5525.55,1437.65 5518.34,1421.45 5516.02,1416.50C5513.71,1411.55 5506.72,1395.80 5500.50,1381.50C5494.29,1367.20 5485.52,1347.17 5481.02,1337.00C5476.53,1326.83 5468.65,1308.83 5463.53,1297.00C5458.41,1285.17 5451.26,1269.11 5447.64,1261.31C5444.03,1253.50 5439.88,1244.28 5438.42,1240.81C5436.97,1237.34 5429.58,1220.55 5422.02,1203.50C5379.83,1108.43 5358.78,1057.53 5358.66,1050.28C5358.41,1036.23 5351.05,1036.91 5500.50,1037.23C5639.16,1037.53 5628.95,1037.07 5635.68,1043.22C5638.00,1045.35 5654.30,1079.66 5669.45,1114.35C5683.91,1147.44 5698.01,1178.94 5712.68,1210.95C5720.10,1227.14 5727.45,1243.57 5728.99,1247.45C5730.54,1251.33 5735.05,1261.70 5739.01,1270.50C5742.97,1279.30 5750.83,1296.85 5756.47,1309.50C5762.12,1322.15 5768.65,1336.55 5770.99,1341.50C5774.94,1349.89 5785.03,1372.91 5813.96,1439.50C5820.41,1454.35 5827.16,1469.65 5828.96,1473.50C5830.77,1477.35 5836.85,1491.16 5842.49,1504.19C5860.24,1545.19 5856.44,1546.11 5882.25,1494.50C5930.81,1397.36 5985.34,1289.59 6011.51,1239.00C6020.75,1221.12 6037.29,1188.72 6048.26,1167.00C6105.95,1052.68 6111.63,1042.33 6118.39,1039.05C6123.37,1036.64 6418.55,1034.74 6429.73,1037.05C6444.12,1040.03 6442.12,1049.05 6417.60,1091.85C6413.61,1098.81 6406.95,1111.03 6402.79,1119.00C6398.64,1126.97 6390.35,1142.37 6384.37,1153.21C6378.39,1164.05 6368.82,1181.60 6363.10,1192.21C6357.37,1202.82 6349.45,1217.35 6345.48,1224.50C6341.52,1231.65 6330.94,1251.00 6321.99,1267.50C6301.53,1305.18 6269.08,1364.41 6259.53,1381.50C6255.53,1388.65 6249.44,1399.67 6246.00,1406.00C6242.56,1412.33 6234.47,1426.95 6228.03,1438.50C6221.58,1450.05 6207.84,1474.80 6197.49,1493.50C6187.15,1512.20 6175.32,1533.58 6171.21,1541.00C6167.09,1548.42 6158.56,1563.95 6152.24,1575.50C6145.93,1587.05 6137.50,1602.12 6133.52,1609.00C6129.54,1615.88 6121.45,1630.50 6115.54,1641.50C6109.63,1652.50 6101.29,1667.58 6097.02,1675.00C6087.55,1691.43 6065.37,1731.35 6043.95,1770.50C6038.84,1779.85 6030.99,1794.03 6026.51,1802.00C6022.03,1809.97 6014.86,1822.95 6010.58,1830.84C5986.83,1874.63 5981.99,1882.11 5975.50,1885.11C5970.22,1887.55 5735.97,1888.00 5730.42,1885.58ZM7379.50,1885.59C7375.57,1883.85 7371.64,1880.09 7369.35,1875.89C7366.43,1870.54 7366.46,1053.45 7369.37,1048.00C7372.03,1043.03 7373.94,1041.08 7378.50,1038.70L7382.50,1036.62L7506.50,1036.90C7640.23,1037.21 7633.74,1036.93 7639.34,1042.59C7645.77,1049.07 7645.45,1045.89 7646.00,1109.70C7646.61,1180.53 7645.36,1176.96 7662.10,1155.70C7739.89,1056.94 7865.52,1008.84 7984.89,1032.13C8007.20,1036.48 8012.33,1039.31 8014.94,1048.72C8016.35,1053.79 8016.40,1280.02 8015.00,1285.07C8012.59,1293.75 8010.05,1294.30 7982.81,1292.08C7921.18,1287.06 7835.17,1304.55 7777.33,1333.88C7702.22,1371.97 7663.65,1423.15 7652.53,1499.50C7648.75,1525.48 7648.72,1526.86 7648.10,1702.66L7647.50,1873.83L7644.49,1878.16C7642.73,1880.70 7639.62,1883.43 7637.02,1884.75L7632.58,1887.00L7507.54,1886.96C7405.75,1886.93 7381.94,1886.67 7379.50,1885.59ZM5107.50,1881.44C5097.70,1876.31 5097.26,1874.42 5096.46,1834.00C5096.10,1815.58 5095.88,1798.92 5095.97,1797.00C5096.90,1778.33 5096.83,1567.15 5095.89,1540.00C5095.26,1521.58 5094.79,1503.58 5094.86,1500.00C5094.92,1496.42 5095.19,1478.65 5095.45,1460.50C5095.72,1442.35 5096.41,1405.45 5096.99,1378.50C5097.88,1336.89 5098.86,1191.88 5098.33,1179.50C5098.23,1177.30 5098.17,1172.35 5098.19,1168.50C5098.20,1164.65 5098.10,1159.92 5097.96,1158.00C5097.81,1156.08 5098.24,1150.64 5098.90,1145.92C5099.73,1140.01 5099.83,1134.70 5099.21,1128.92C5098.69,1124.01 5098.68,1106.57 5099.18,1087.05C5100.17,1048.87 5100.36,1048.02 5109.15,1042.99L5113.50,1040.50L5216.50,1040.50C5327.53,1040.50 5325.22,1040.40 5331.07,1045.68C5338.73,1052.60 5338.10,1013.13 5337.78,1464.11L5337.50,1868.50L5335.41,1872.50C5334.26,1874.70 5331.41,1877.85 5329.08,1879.50L5324.83,1882.50L5217.66,1882.75C5121.90,1882.98 5110.18,1882.84 5107.50,1881.44ZM2119.50,1881.39C2089.52,1880.16 2040.31,1876.47 2020.00,1873.91C1967.78,1867.36 1925.16,1860.13 1884.50,1850.95C1820.54,1836.50 1813.75,1834.79 1765.50,1820.97C1687.59,1798.65 1666.45,1791.87 1505.50,1737.55C1468.65,1725.12 1426.54,1711.38 1411.92,1707.03C1397.30,1702.68 1373.45,1695.45 1358.92,1690.98C1291.96,1670.35 1194.01,1648.14 1134.50,1640.09C1057.63,1629.70 1017.50,1626.74 951.51,1626.60C887.76,1626.46 889.00,1622.31 956.00,1611.57C1024.44,1600.59 1079.33,1596.57 1151.50,1597.27C1209.37,1597.83 1213.85,1598.13 1278.00,1605.61C1354.09,1614.49 1420.43,1628.65 1518.50,1656.97C1537.20,1662.37 1560.83,1669.14 1571.00,1672.01C1581.17,1674.88 1603.45,1681.50 1620.50,1686.73C1637.55,1691.96 1663.42,1699.73 1678.00,1704.00C1713.66,1714.47 1741.57,1722.82 1804.50,1741.86C1975.29,1793.54 2085.10,1813.06 2204.89,1813.05C2331.67,1813.03 2486.19,1780.74 2618.82,1726.56C2649.85,1713.88 2654.69,1717.94 2629.75,1735.75C2592.54,1762.33 2583.47,1768.19 2550.27,1787.11C2431.33,1854.87 2280.10,1887.97 2119.50,1881.39ZM3330.60,1879.97C3325.29,1878.36 3321.98,1873.83 3278.41,1808.50C3233.23,1740.74 3198.64,1689.44 3178.62,1660.50C3172.15,1651.15 3159.33,1632.25 3150.13,1618.50C3140.93,1604.75 3130.37,1589.33 3126.68,1584.23C3122.99,1579.14 3116.46,1569.69 3112.18,1563.23C3101.09,1546.52 3080.35,1516.34 3076.35,1511.10C3069.46,1502.07 3067.48,1502.08 3057.90,1511.21C3046.23,1522.34 3047.57,1499.55 3047.00,1697.00C3046.50,1868.19 3046.48,1869.53 3044.47,1873.00C3040.06,1880.58 3052.14,1880.04 2895.00,1879.75L2754.50,1879.50L2751.37,1877.27C2749.65,1876.04 2747.43,1873.34 2746.43,1871.27C2743.46,1865.09 2743.56,795.15 2746.53,790.08C2747.61,788.22 2749.77,785.76 2751.32,784.60L2754.15,782.50L2896.97,782.50C3038.38,782.50 3039.81,782.52 3042.03,784.50C3047.26,789.16 3046.99,778.84 3047.10,983.22C3047.19,1162.36 3047.49,1191.83 3049.20,1193.54C3051.08,1195.41 3056.07,1191.83 3069.76,1178.75C3077.96,1170.91 3093.41,1156.15 3104.09,1145.94C3114.76,1135.73 3134.07,1117.30 3147.00,1104.99C3159.93,1092.69 3190.07,1063.68 3214.00,1040.53C3237.93,1017.39 3266.43,989.91 3277.35,979.47C3288.27,969.04 3310.77,947.42 3327.35,931.43C3369.31,890.96 3382.03,879.10 3385.50,877.17C3389.50,874.94 3717.65,874.08 3722.00,876.28C3728.86,879.76 3726.54,883.09 3699.50,908.60C3649.60,955.67 3624.82,979.20 3608.52,995.03C3599.16,1004.12 3584.75,1017.82 3576.50,1025.47C3568.25,1033.12 3554.07,1046.67 3545.00,1055.59C3535.93,1064.51 3518.53,1081.18 3506.36,1092.65C3473.55,1123.54 3404.62,1189.36 3349.00,1242.93C3319.61,1271.23 3307.84,1282.37 3296.58,1292.54C3274.97,1312.05 3274.31,1308.49 3309.15,1360.23C3319.79,1376.03 3340.85,1407.31 3355.94,1429.73C3371.04,1452.15 3386.82,1475.22 3391.02,1481.00C3395.22,1486.78 3404.41,1500.28 3411.45,1511.00C3418.48,1521.72 3427.00,1534.31 3430.37,1538.97C3454.57,1572.40 3648.62,1862.50 3651.72,1869.89C3653.46,1874.04 3652.72,1877.52 3649.74,1879.22C3647.07,1880.75 3335.58,1881.48 3330.60,1879.97ZM4152.00,1875.08C4145.71,1874.12 4141.58,1871.68 4138.85,1867.27L4136.50,1863.50L4136.00,1815.78C4135.37,1755.35 4136.86,1758.12 4115.68,1777.93C4009.29,1877.46 3881.25,1895.80 3745.35,1830.99C3555.26,1740.33 3443.29,1491.60 3506.89,1301.31C3541.61,1197.46 3632.11,1110.44 3754.00,1063.70C3883.55,1014.02 4024.20,1032.62 4118.34,1111.89C4137.80,1128.27 4137.00,1129.26 4137.01,1088.70C4137.01,1052.18 4138.00,1048.15 4148.31,1042.81L4152.50,1040.63L4269.50,1040.57L4386.50,1040.50L4390.67,1042.73C4395.70,1045.42 4398.52,1049.15 4399.97,1055.07C4400.75,1058.24 4400.98,1174.39 4400.78,1462.08L4400.50,1864.66L4397.62,1868.43C4391.84,1876.01 4400.95,1875.49 4272.00,1875.63C4208.48,1875.70 4154.48,1875.45 4152.00,1875.08ZM2405.00,1695.00C2402.32,1692.32 2402.39,1691.62 2407.04,1675.50C2452.26,1518.66 2367.45,1372.38 2221.51,1355.50C2085.37,1339.76 1961.17,1451.03 1938.55,1609.00C1935.17,1632.67 1937.36,1631.00 1909.50,1631.00C1884.74,1631.00 1885.00,1631.11 1885.00,1621.25C1885.00,1607.32 1889.90,1602.88 1904.96,1603.18C1921.48,1603.51 1922.26,1602.73 1926.05,1582.00C1948.84,1457.39 2025.74,1369.89 2136.91,1342.05C2291.97,1303.21 2437.04,1415.89 2447.97,1583.66C2449.43,1605.96 2450.20,1606.86 2466.06,1604.94C2481.12,1603.12 2479.20,1605.32 2497.99,1568.50C2570.86,1425.76 2573.75,1422.26 2634.13,1403.93C2665.68,1394.35 2664.87,1395.17 2659.57,1378.24C2652.10,1354.41 2652.64,1354.80 2634.12,1359.51C2610.90,1365.41 2599.89,1366.27 2588.91,1363.02C2583.02,1361.29 2579.99,1362.69 2564.00,1374.52C2542.22,1390.64 2536.49,1392.27 2509.37,1390.06C2475.90,1387.33 2474.46,1386.58 2455.06,1361.68C2438.14,1339.96 2426.91,1327.04 2402.50,1301.25C2393.15,1291.36 2384.60,1281.75 2383.50,1279.89C2380.22,1274.33 2376.75,1273.37 2353.50,1271.54C2341.95,1270.64 2324.40,1269.26 2314.50,1268.48C2304.60,1267.70 2289.97,1266.38 2282.00,1265.56C2253.95,1262.65 2222.73,1260.09 2165.00,1255.97C2106.52,1251.81 2055.46,1247.86 2036.00,1246.02C2030.22,1245.47 2017.85,1244.57 2008.50,1244.02C1966.67,1241.57 1958.17,1237.84 1968.23,1226.39C1972.79,1221.19 1976.49,1219.99 1991.40,1218.83C2008.85,1217.48 2008.98,1217.41 2022.05,1200.76C2037.25,1181.39 2037.25,1181.52 2021.28,1167.87C2015.90,1163.28 2007.22,1155.74 2002.00,1151.11C1996.78,1146.49 1984.85,1136.61 1975.50,1129.16C1966.15,1121.71 1955.35,1112.87 1951.50,1109.51C1937.27,1097.10 1879.65,1053.20 1862.00,1041.33C1846.84,1031.12 1826.72,1023.12 1808.36,1019.98C1766.29,1012.78 1641.21,1012.80 1540.00,1020.00C1532.58,1020.53 1517.95,1021.43 1507.50,1022.01C1497.05,1022.58 1484.00,1023.49 1478.50,1024.01C1473.00,1024.54 1460.40,1025.68 1450.50,1026.53C1427.23,1028.54 1424.03,1029.26 1393.20,1039.36C1356.72,1051.31 1355.57,1051.98 1348.87,1065.25C1347.16,1068.64 1342.06,1077.95 1337.53,1085.95C1333.00,1093.95 1325.85,1106.86 1321.63,1114.63C1299.53,1155.34 1298.74,1134.38 1320.39,1081.55C1327.46,1064.28 1326.55,1064.33 1295.50,1082.82C1254.20,1107.42 1168.62,1165.79 1160.63,1174.81C1155.12,1181.03 1162.33,1182.17 1231.50,1186.07C1241.95,1186.66 1252.53,1187.61 1255.00,1188.20C1257.47,1188.78 1267.38,1189.39 1277.00,1189.56C1286.62,1189.72 1309.35,1190.34 1327.50,1190.93C1345.65,1191.52 1380.53,1192.46 1405.00,1193.02C1429.47,1193.57 1463.90,1194.68 1481.50,1195.49C1499.10,1196.29 1527.45,1197.41 1544.50,1197.98C1574.79,1198.98 1596.56,1199.94 1636.00,1202.01C1646.72,1202.57 1672.38,1203.70 1693.00,1204.50C1713.62,1205.31 1736.35,1206.43 1743.50,1206.99C1750.65,1207.55 1769.33,1208.67 1785.00,1209.47C1800.67,1210.28 1824.54,1211.69 1838.04,1212.61C1851.54,1213.53 1864.74,1213.97 1867.37,1213.57L1872.16,1212.85L1865.37,1208.18C1852.68,1199.43 1849.41,1192.10 1850.20,1174.07C1852.73,1115.69 1955.28,1125.29 1963.91,1184.71C1965.64,1196.67 1964.23,1200.56 1955.89,1206.80C1951.66,1209.97 1938.41,1212.12 1917.81,1212.97C1895.32,1213.91 1892.64,1214.46 1895.96,1217.47C1898.71,1219.96 1898.61,1224.47 1895.75,1226.51C1884.90,1234.26 1877.47,1237.50 1869.73,1237.86C1857.07,1238.44 1776.24,1236.06 1756.11,1234.51C1720.37,1231.75 1666.26,1228.81 1572.00,1224.49C1565.12,1224.18 1548.03,1223.27 1534.00,1222.49C1519.97,1221.70 1495.67,1220.58 1480.00,1220.00C1464.33,1219.42 1436.65,1218.30 1418.50,1217.51C1400.35,1216.72 1373.80,1215.78 1359.50,1215.42C1343.42,1215.02 1331.21,1214.25 1327.50,1213.40C1324.20,1212.65 1317.24,1212.02 1312.03,1212.01C1296.15,1211.99 1264.99,1210.05 1256.00,1208.53C1251.33,1207.74 1242.78,1206.83 1237.00,1206.50C1231.22,1206.18 1218.44,1205.04 1208.59,1203.96C1198.74,1202.88 1186.72,1202.00 1181.89,1202.00C1177.06,1202.00 1167.12,1201.13 1159.80,1200.06C1152.49,1198.99 1141.55,1197.61 1135.50,1196.99C1094.91,1192.83 1094.87,1191.28 1134.75,1164.53C1151.66,1153.18 1174.95,1137.35 1186.50,1129.35C1248.09,1086.67 1287.62,1063.85 1326.72,1048.41C1380.18,1027.31 1403.88,1020.39 1459.50,1009.63C1543.52,993.38 1748.29,989.95 1818.82,1003.62C1835.74,1006.89 1837.87,1006.50 1839.79,999.70C1842.32,990.74 1850.55,988.94 1852.49,996.92C1853.91,1002.82 1860.23,1008.97 1889.87,1033.31C1902.73,1043.86 1922.30,1060.11 1933.37,1069.41C1944.44,1078.71 1958.67,1090.14 1965.00,1094.81C1971.33,1099.48 1983.92,1109.66 1993.00,1117.44C2008.06,1130.35 2046.30,1162.58 2058.51,1172.65C2070.18,1182.28 2068.21,1181.98 2111.22,1180.52C2134.03,1179.75 2135.99,1179.82 2136.59,1181.39C2137.81,1184.56 2125.44,1186.90 2091.45,1189.91C2065.87,1192.17 2062.96,1193.04 2056.33,1200.36C2040.69,1217.65 2041.70,1218.54 2081.32,1222.58C2104.09,1224.90 2114.89,1225.79 2165.00,1229.47C2176.28,1230.29 2192.03,1231.64 2200.00,1232.46C2235.13,1236.07 2254.32,1237.87 2301.50,1241.99C2328.95,1244.39 2362.46,1247.59 2379.50,1249.43C2386.65,1250.21 2399.03,1251.55 2407.00,1252.41C2430.82,1255.00 2459.72,1257.91 2472.50,1259.01C2479.10,1259.58 2495.07,1261.35 2508.00,1262.94C2520.93,1264.52 2533.97,1266.08 2537.00,1266.40C2540.03,1266.71 2557.57,1268.74 2576.00,1270.90C2622.71,1276.38 2620.35,1276.20 2622.58,1274.57C2624.42,1273.22 2624.32,1272.99 2620.26,1269.24C2593.12,1244.17 2496.15,1220.75 2306.50,1193.46C2264.99,1187.49 2261.36,1187.23 2254.28,1189.82C2241.51,1194.47 2233.60,1191.62 2210.50,1174.01C2182.47,1152.64 2132.05,1116.29 2114.35,1104.69C2035.48,1052.98 1989.05,1025.10 1937.14,998.28C1921.02,989.95 1920.70,989.84 1915.14,990.41C1895.73,992.42 1872.00,992.25 1872.00,990.11C1872.00,988.95 1872.34,988.00 1872.75,988.00C1873.16,988.00 1877.33,987.33 1882.00,986.52C1886.67,985.71 1896.58,984.38 1904.00,983.56C1911.42,982.74 1923.23,980.93 1930.23,979.54C1947.25,976.15 1945.98,975.96 1964.87,984.64C2019.25,1009.62 2085.73,1048.67 2136.74,1085.58C2184.43,1120.08 2213.34,1141.53 2223.50,1149.96C2229.55,1154.98 2238.18,1161.60 2242.68,1164.67C2251.88,1170.96 2247.42,1170.06 2286.50,1173.52C2312.79,1175.84 2367.73,1182.61 2396.50,1187.07C2563.24,1212.91 2634.02,1236.38 2651.88,1271.76C2657.71,1283.31 2664.24,1311.64 2668.36,1343.29C2669.65,1353.19 2670.27,1355.04 2677.09,1369.23C2686.79,1389.39 2686.77,1389.10 2679.69,1424.20C2672.68,1458.93 2674.01,1457.10 2651.95,1462.53C2588.48,1478.17 2580.43,1483.60 2550.96,1530.50C2547.50,1536.00 2540.33,1547.03 2535.02,1555.00C2522.29,1574.11 2510.00,1595.14 2510.00,1597.80C2510.00,1606.75 2555.14,1598.93 2583.50,1585.07C2606.01,1574.06 2605.51,1571.34 2581.07,1571.85C2563.98,1572.20 2560.00,1571.57 2560.00,1568.50C2560.00,1567.03 2562.99,1566.03 2573.50,1563.99C2584.00,1561.95 2614.73,1554.07 2620.28,1551.99C2626.09,1549.82 2629.44,1546.83 2634.34,1539.44C2640.13,1530.71 2644.29,1530.85 2649.75,1539.98C2657.32,1552.63 2648.83,1564.08 2615.86,1585.69C2583.84,1606.67 2536.19,1620.28 2473.00,1626.50C2442.28,1629.52 2444.30,1628.02 2439.38,1651.50C2432.26,1685.55 2428.29,1693.49 2417.20,1695.86C2409.74,1697.46 2407.29,1697.29 2405.00,1695.00ZM6848.98,1684.43C6933.41,1674.61 7002.64,1624.26 7034.52,1549.51C7040.39,1535.72 7040.42,1534.73 7034.88,1533.63C7028.19,1532.29 6627.04,1532.87 6624.29,1534.22C6619.35,1536.65 6619.20,1538.16 6622.85,1548.77C6648.74,1623.89 6716.66,1673.85 6808.50,1685.33C6816.29,1686.30 6836.82,1685.84 6848.98,1684.43ZM3951.03,1632.48C4089.12,1615.70 4166.16,1465.63 4095.02,1352.00C4010.75,1217.39 3815.01,1238.68 3759.48,1388.50C3713.53,1512.43 3820.27,1648.38 3951.03,1632.48ZM2371.21,1560.75C2370.64,1560.06 2368.75,1555.90 2367.02,1551.50C2334.28,1468.48 2240.68,1414.45 2160.50,1432.29C2103.16,1445.05 2060.18,1476.40 2022.48,1532.95C2008.08,1554.55 2005.07,1555.41 2010.55,1536.36C2024.77,1486.97 2074.06,1438.94 2129.57,1420.39C2152.20,1412.83 2162.46,1411.50 2198.00,1411.52L2228.50,1411.55L2241.34,1414.78C2307.00,1431.31 2355.62,1478.20 2372.53,1541.29C2376.31,1555.41 2375.59,1566.04 2371.21,1560.75ZM7018.91,1378.33C7039.72,1377.38 7040.12,1376.66 7031.43,1356.00C7003.79,1290.26 6931.32,1240.69 6851.50,1232.90C6762.67,1224.23 6668.82,1276.33 6629.03,1356.39C6619.11,1376.33 6619.38,1377.21 6635.67,1378.07C6651.19,1378.88 7001.65,1379.12 7018.91,1378.33ZM2540.50,1363.55C2544.35,1361.64 2553.08,1356.47 2559.89,1352.06C2576.50,1341.31 2584.35,1340.16 2594.93,1346.96C2603.78,1352.63 2618.87,1349.57 2633.37,1339.15C2645.58,1330.39 2645.35,1330.86 2644.67,1315.50C2643.60,1291.34 2647.04,1292.95 2595.67,1292.58C2573.30,1292.42 2551.95,1291.79 2547.50,1291.17C2538.26,1289.88 2491.01,1285.38 2477.00,1284.46C2471.78,1284.11 2461.88,1283.22 2455.00,1282.46C2408.71,1277.40 2408.87,1276.75 2446.68,1316.57C2454.48,1324.78 2463.61,1334.88 2466.96,1339.00C2483.96,1359.88 2485.25,1360.91 2498.40,1364.03C2518.82,1368.88 2529.98,1368.76 2540.50,1363.55ZM1903.44,1288.09C1899.56,1287.05 1894.61,1285.43 1892.44,1284.50C1890.27,1283.57 1883.10,1280.88 1876.50,1278.51C1861.12,1272.99 1859.61,1272.31 1853.00,1267.94C1843.20,1261.46 1846.60,1262.28 1810.00,1257.53C1753.79,1250.22 1741.50,1247.87 1741.50,1244.46C1741.50,1233.15 1962.01,1248.43 1982.75,1261.17C2002.98,1273.59 1935.11,1296.64 1903.44,1288.09ZM884.75,1224.44C883.57,1223.23 883.87,1220.16 885.45,1217.09C888.95,1210.33 914.93,1181.16 955.68,1138.26C977.48,1115.31 977.08,1117.94 961.19,1101.62C936.33,1076.11 936.76,1073.92 967.50,1068.98C980.71,1066.85 1026.41,1058.98 1078.00,1049.94C1093.67,1047.20 1118.20,1042.91 1132.50,1040.41C1166.90,1034.40 1163.78,1035.63 1179.77,1021.75C1218.86,987.82 1229.10,982.90 1284.50,971.45C1296.05,969.06 1310.88,965.94 1317.45,964.51C1324.03,963.08 1341.80,959.70 1356.95,956.98C1372.10,954.27 1395.41,950.04 1408.76,947.57C1456.88,938.67 1515.74,930.87 1560.12,927.51C1571.33,926.66 1581.62,925.75 1583.00,925.49C1617.68,918.95 1788.18,919.00 1817.50,925.56C1818.60,925.80 1825.58,926.69 1833.00,927.53C1891.46,934.14 1956.51,947.77 1960.41,954.22C1962.93,958.38 1961.89,958.46 1898.20,959.22C1864.82,959.62 1820.39,960.37 1799.49,960.89C1752.63,962.05 1753.85,962.22 1745.10,953.10C1734.89,942.46 1735.50,942.56 1686.50,943.33C1645.89,943.96 1592.27,946.20 1575.00,947.98C1569.78,948.52 1559.65,949.43 1552.50,950.00C1536.00,951.32 1513.36,954.32 1491.00,958.15C1481.38,959.80 1465.17,962.49 1455.00,964.12C1419.70,969.80 1408.91,972.51 1406.59,976.28C1403.72,980.96 1408.72,980.99 1448.50,976.55C1517.24,968.88 1526.18,967.97 1543.00,966.94C1581.23,964.61 1604.24,962.23 1610.96,959.91C1617.20,957.75 1617.88,957.72 1630.46,958.91C1639.20,959.75 1657.86,960.06 1687.00,959.87C1732.38,959.57 1737.00,959.86 1737.00,963.04C1737.00,966.32 1722.79,968.29 1690.50,969.49C1676.73,970.01 1656.41,971.52 1610.00,975.50C1600.38,976.32 1586.65,977.46 1579.50,978.03C1522.65,982.55 1404.50,997.97 1357.85,1006.97C1282.65,1021.48 1241.08,1030.17 1225.76,1034.58C1169.55,1050.78 1145.48,1059.96 1129.34,1071.32C1125.58,1073.98 1116.53,1079.60 1109.23,1083.82C1092.60,1093.45 1083.73,1099.75 1057.99,1120.20C1037.83,1136.22 1008.92,1156.00 1005.66,1156.00C995.95,1156.00 1037.18,1118.49 1072.91,1094.81C1105.57,1073.17 1110.73,1066.63 1093.65,1068.50C1081.92,1069.79 1053.38,1074.05 1029.50,1078.08C1016.30,1080.31 999.69,1082.98 992.59,1084.01C972.51,1086.93 972.46,1087.90 991.47,1103.76C1005.25,1115.24 1006.87,1117.41 1005.56,1122.62C1004.46,1127.02 935.41,1197.43 917.93,1211.98C907.30,1220.83 888.21,1228.00 884.75,1224.44ZM1945.27,1193.02C1951.35,1190.03 1948.28,1181.10 1937.45,1170.27C1920.70,1153.52 1885.99,1148.28 1873.63,1160.64C1861.49,1172.79 1864.30,1187.89 1879.50,1192.14C1890.07,1195.10 1939.71,1195.76 1945.27,1193.02ZM1623.20,1182.74C1619.22,1177.94 1610.50,1132.81 1606.92,1098.50C1600.55,1037.44 1600.53,1032.91 1606.60,1031.39C1614.38,1029.43 1617.06,1037.09 1620.97,1072.50C1621.58,1078.00 1622.71,1087.22 1623.48,1093.00C1624.25,1098.78 1625.15,1108.45 1625.47,1114.50C1625.79,1120.55 1626.75,1135.62 1627.59,1148.00C1629.85,1180.89 1628.77,1189.45 1623.20,1182.74ZM1303.59,998.49C1359.53,988.64 1368.18,986.34 1365.53,982.04C1362.41,977.01 1292.66,990.82 1282.65,998.46C1277.16,1002.65 1279.97,1002.65 1303.59,998.49ZM8215.00,962.90C8095.64,950.74 8016.74,825.32 8059.69,716.00C8113.90,578.03 8300.63,550.34 8387.72,667.36C8484.67,797.63 8378.36,979.55 8215.00,962.90Z"/><path fill="#fc6026" fill-rule="evenodd" d="M3141.35,2184.45C3052.74,2171.52 3027.48,2051.62 3102.68,2000.88C3165.82,1958.27 3252.94,1997.53 3261.14,2072.29C3268.77,2141.94 3212.31,2194.80 3141.35,2184.45ZM3512.50,2184.85C3477.63,2178.42 3456.09,2155.22 3449.96,2117.51C3448.09,2105.99 3447.97,2101.24 3448.23,2049.09L3448.50,1993.04L3451.24,1990.31C3457.04,1984.51 3479.58,1986.13 3482.01,1992.52C3482.62,1994.14 3483.00,2016.89 3483.00,2052.41C3483.00,2115.38 3483.18,2117.53 3489.47,2129.94C3504.03,2158.67 3553.96,2158.73 3568.47,2130.05C3573.44,2120.23 3573.38,2121.09 3573.95,2055.27L3574.50,1993.04L3577.27,1990.27C3582.08,1985.46 3601.72,1985.63 3606.61,1990.52L3609.00,1992.91L3608.99,2053.20C3608.99,2118.32 3608.51,2125.98 3603.68,2139.30C3591.69,2172.34 3552.04,2192.15 3512.50,2184.85ZM4209.77,2184.45C4179.50,2179.73 4148.31,2158.83 4154.36,2147.32C4162.58,2131.68 4170.46,2128.92 4182.17,2137.55C4218.53,2164.34 4275.76,2154.46 4266.99,2122.92C4264.13,2112.60 4253.83,2107.39 4218.97,2098.64C4170.98,2086.59 4152.10,2064.01 4160.42,2028.60C4170.27,1986.65 4235.73,1970.06 4283.92,1997.31C4301.62,2007.31 4302.80,2013.57 4289.62,2027.51C4283.13,2034.37 4282.49,2034.37 4269.64,2027.50C4236.05,2009.57 4197.18,2015.77 4195.22,2039.38C4194.05,2053.52 4202.55,2059.30 4238.28,2068.62C4293.39,2083.00 4311.38,2102.60 4304.04,2140.26C4297.69,2172.81 4257.13,2191.82 4209.77,2184.45ZM8216.00,2185.32C8197.16,2182.24 8185.02,2177.83 8172.43,2169.47C8152.61,2156.32 8151.08,2151.20 8163.11,2138.47C8171.12,2130.00 8172.47,2130.11 8187.74,2140.36C8219.14,2161.46 8267.93,2154.22 8267.99,2128.46C8268.02,2115.73 8258.62,2109.12 8229.50,2101.35C8195.77,2092.37 8184.79,2087.60 8174.56,2077.53C8153.89,2057.16 8155.44,2020.88 8177.79,2002.17C8204.07,1980.18 8249.85,1978.04 8283.80,1997.21C8301.81,2007.38 8303.40,2012.07 8293.20,2025.00C8285.93,2034.23 8282.70,2034.99 8274.09,2029.50C8241.57,2008.78 8197.00,2015.23 8197.00,2040.65C8197.00,2053.74 8205.48,2059.13 8240.83,2068.48C8287.01,2080.69 8304.26,2096.43 8304.43,2126.50C8304.66,2166.47 8264.43,2193.23 8216.00,2185.32ZM5442.37,2183.34C5441.21,2183.09 5439.18,2181.76 5437.87,2180.37L5435.50,2177.84L5435.50,2085.44L5435.50,1993.05L5438.28,1990.27L5441.06,1987.50L5483.78,1987.63C5530.97,1987.77 5537.63,1988.40 5551.88,1994.10C5639.68,2029.17 5631.15,2157.15 5539.50,2180.01C5529.02,2182.62 5451.62,2185.27 5442.37,2183.34ZM6101.02,2182.88C6099.10,2182.48 6096.51,2180.97 6095.27,2179.52L6093.00,2176.89L6093.00,2103.91C6093.00,2012.22 6096.86,2022.44 6062.00,2021.70C6032.47,2021.08 6032.60,2021.16 6033.16,2003.17C6033.47,1993.18 6033.73,1991.82 6035.78,1989.78L6038.05,1987.50L6108.78,1987.19C6197.67,1986.81 6190.01,1985.32 6189.99,2002.94C6189.96,2022.05 6190.92,2021.48 6158.22,2021.55L6133.94,2021.60L6131.28,2024.27L6128.62,2026.93L6128.25,2101.20C6127.86,2180.20 6127.92,2179.36 6122.99,2181.63C6119.90,2183.06 6105.72,2183.87 6101.02,2182.88ZM6396.37,2183.31C6395.21,2183.08 6393.18,2181.76 6391.87,2180.37L6389.50,2177.84L6389.20,2087.67C6388.88,1988.88 6388.77,1990.83 6394.53,1988.42C6405.10,1984.01 6494.79,1987.05 6509.30,1992.32C6556.41,2009.42 6562.83,2071.59 6520.38,2099.55C6508.50,2107.37 6508.16,2109.22 6516.26,2121.74C6518.71,2125.52 6523.43,2133.53 6526.75,2139.55C6530.08,2145.57 6535.76,2155.37 6539.37,2161.33C6549.99,2178.83 6549.58,2181.50 6536.03,2183.23C6512.20,2186.28 6511.99,2186.10 6487.04,2141.00C6470.24,2110.65 6471.99,2112.00 6449.45,2112.00C6425.12,2112.00 6426.00,2110.65 6426.00,2148.00C6426.00,2177.94 6425.60,2180.43 6420.40,2182.61C6417.26,2183.92 6401.78,2184.37 6396.37,2183.31ZM6888.50,2182.53C6886.30,2181.71 6884.41,2181.02 6884.29,2181.02C6883.25,2180.94 6878.04,2169.79 6873.96,2158.89C6866.01,2137.63 6869.06,2138.74 6819.82,2139.19C6776.92,2139.57 6780.82,2137.74 6770.39,2162.50C6762.01,2182.42 6761.26,2183.01 6744.28,2182.99C6722.72,2182.96 6722.82,2181.28 6747.74,2125.50C6752.41,2115.05 6758.81,2099.53 6761.96,2091.00C6765.11,2082.47 6770.75,2068.75 6774.49,2060.50C6782.77,2042.23 6788.98,2027.67 6795.83,2010.50C6805.01,1987.50 6805.00,1987.50 6824.13,1987.50C6843.25,1987.50 6841.58,1985.83 6853.85,2017.00C6856.56,2023.88 6862.45,2038.28 6866.95,2049.00C6871.46,2059.72 6877.98,2075.70 6881.45,2084.50C6884.92,2093.30 6892.72,2112.20 6898.79,2126.50C6919.34,2174.89 6920.21,2177.69 6915.98,2181.52C6913.17,2184.06 6894.40,2184.75 6888.50,2182.53ZM7164.50,2182.64C7159.57,2180.39 7158.50,2178.45 7149.01,2154.48C7139.32,2130.00 7136.98,2124.23 7122.51,2089.00C7117.43,2076.62 7108.31,2054.35 7102.25,2039.50C7096.19,2024.65 7089.85,2009.47 7088.16,2005.76C7080.87,1989.74 7082.42,1987.50 7100.76,1987.50C7120.32,1987.50 7118.58,1985.64 7132.86,2022.00C7138.36,2036.03 7149.37,2063.61 7157.33,2083.30C7178.59,2135.96 7176.48,2135.92 7197.08,2084.00C7239.92,1976.04 7233.56,1987.00 7253.30,1987.00C7275.41,1987.00 7275.55,1985.22 7248.50,2050.00C7244.25,2060.18 7238.85,2073.45 7236.51,2079.50C7234.16,2085.55 7227.96,2100.62 7222.75,2113.00C7217.53,2125.38 7210.47,2142.93 7207.05,2152.00C7195.32,2183.15 7195.11,2183.38 7178.68,2183.75C7170.88,2183.93 7166.59,2183.60 7164.50,2182.64ZM7464.48,2182.60C7458.82,2180.14 7459.00,2183.28 7459.00,2085.92C7459.00,1985.36 7458.68,1990.05 7465.67,1988.01C7468.37,1987.22 7489.03,1986.98 7535.73,1987.20L7601.96,1987.50L7604.73,1990.28C7607.88,1993.44 7608.60,2006.64 7606.03,2014.41C7603.76,2021.28 7603.87,2021.27 7548.66,2021.92L7499.82,2022.50L7497.57,2025.12C7494.57,2028.61 7493.01,2055.69 7495.47,2061.58C7498.09,2067.86 7499.14,2068.00 7543.00,2068.00C7593.24,2068.00 7591.87,2067.46 7590.16,2086.76C7588.94,2100.46 7592.68,2099.41 7543.22,2100.00C7490.77,2100.63 7495.00,2098.42 7495.00,2125.18C7495.00,2152.40 7490.19,2150.37 7553.62,2149.88L7601.94,2149.50L7604.72,2152.27C7608.59,2156.14 7609.03,2176.41 7605.33,2180.12C7601.39,2184.06 7473.01,2186.32 7464.48,2182.60ZM7828.25,2183.34C7817.53,2181.01 7818.45,2190.49 7818.84,2086.04C7819.23,1985.36 7818.90,1990.01 7825.75,1987.96C7833.21,1985.72 7847.50,1987.05 7850.73,1990.27L7853.50,1993.04L7854.00,2068.50L7854.50,2143.96L7857.28,2146.73L7860.06,2149.50L7907.78,2149.50C7945.66,2149.50 7955.98,2149.77 7957.83,2150.83C7965.00,2154.92 7965.11,2178.30 7957.97,2181.67C7955.96,2182.62 7832.27,2184.21 7828.25,2183.34ZM2803.37,2181.60C2798.41,2179.37 2798.52,2181.09 2798.00,2102.77L2797.50,2028.04L2794.73,2025.27L2791.96,2022.50L2768.68,2022.00C2737.92,2021.34 2737.55,2021.10 2738.17,2002.85C2738.75,1985.87 2733.26,1986.93 2818.64,1987.37C2900.64,1987.79 2895.00,1986.52 2895.00,2004.50C2895.00,2020.94 2894.32,2021.31 2862.50,2022.08C2848.75,2022.41 2837.40,2022.75 2837.27,2022.84C2833.53,2025.49 2833.52,2025.65 2833.00,2103.18L2832.50,2177.95L2830.22,2180.22C2827.35,2183.10 2808.81,2184.05 2803.37,2181.60ZM3812.31,2181.99C3806.30,2179.57 3806.53,2182.64 3806.14,2101.54C3805.71,2011.15 3806.23,1994.01 3809.52,1990.18L3811.83,1987.50L3860.16,1987.50C3914.96,1987.50 3916.31,1987.66 3933.67,1996.14C3975.15,2016.41 3976.72,2077.33 3936.37,2100.80C3924.85,2107.50 3924.95,2108.78 3938.59,2130.58C3970.90,2182.18 3971.03,2182.96 3947.22,2182.99C3928.81,2183.01 3927.32,2181.99 3915.51,2161.41C3885.15,2108.49 3888.69,2112.00 3865.68,2112.00C3841.23,2112.00 3842.65,2109.84 3842.00,2148.34L3841.50,2178.18L3838.69,2180.59C3835.70,2183.16 3817.61,2184.13 3812.31,2181.99ZM4677.23,2181.81C4672.50,2179.45 4673.20,2174.52 4680.58,2158.00C4685.32,2147.38 4695.91,2122.57 4704.68,2101.53C4708.79,2091.65 4716.13,2074.55 4720.98,2063.53C4725.83,2052.52 4734.59,2032.19 4740.45,2018.38C4753.89,1986.69 4753.57,1987.00 4772.49,1987.00C4789.13,1987.00 4789.76,1987.60 4800.41,2013.50C4813.71,2045.86 4821.61,2065.26 4827.51,2080.00C4838.32,2107.01 4850.75,2137.43 4857.89,2154.36C4869.13,2180.98 4868.86,2182.25 4851.82,2182.85C4833.29,2183.49 4831.37,2182.25 4824.48,2165.27C4812.89,2136.69 4818.77,2139.50 4770.50,2139.50C4723.59,2139.50 4728.07,2137.51 4716.14,2163.70C4707.56,2182.55 4707.71,2182.43 4691.68,2182.72C4684.13,2182.86 4678.64,2182.52 4677.23,2181.81ZM5065.36,2181.55C5060.07,2179.26 5060.14,2180.45 5060.32,2083.27L5060.50,1993.05L5063.27,1990.27C5065.93,1987.61 5066.49,1987.49 5077.74,1987.16C5096.20,1986.62 5097.41,1987.32 5110.67,2006.44C5118.56,2017.79 5133.95,2038.80 5152.49,2063.50C5158.27,2071.20 5167.94,2084.31 5173.98,2092.64C5196.40,2123.56 5195.36,2125.47 5196.00,2052.05C5196.61,1981.94 5195.19,1986.98 5214.32,1987.01C5232.57,1987.04 5230.94,1977.61 5231.18,2084.61C5231.43,2193.14 5233.39,2182.96 5212.22,2182.99C5194.76,2183.01 5194.84,2183.07 5174.20,2153.89C5152.03,2122.53 5135.62,2099.51 5128.26,2089.42C5124.28,2083.96 5117.37,2074.41 5112.92,2068.19C5096.28,2044.95 5096.62,2043.96 5096.00,2118.12L5095.50,2178.17L5092.69,2180.59C5089.33,2183.48 5071.25,2184.12 5065.36,2181.55ZM3178.55,2148.53C3250.13,2124.68 3234.18,2018.71 3159.00,2018.72C3115.74,2018.73 3087.00,2056.77 3096.46,2101.50C3104.22,2138.22 3142.94,2160.40 3178.55,2148.53ZM5534.76,2145.26C5593.45,2123.03 5589.32,2035.79 5529.00,2023.63C5506.32,2019.06 5474.36,2021.30 5471.96,2027.62C5470.53,2031.37 5470.69,2138.82 5472.13,2142.96C5474.11,2148.61 5476.51,2149.06 5503.00,2148.70L5526.50,2148.39L5534.76,2145.26ZM4793.69,2105.91C4799.95,2103.57 4799.33,2100.17 4786.84,2068.70C4771.66,2030.47 4771.31,2030.49 4754.79,2070.88C4738.65,2110.36 4737.76,2108.30 4770.50,2107.35C4782.05,2107.01 4792.49,2106.36 4793.69,2105.91ZM6847.90,2105.60C6851.28,2102.53 6850.52,2099.17 6840.97,2075.18C6823.59,2031.53 6824.10,2031.58 6806.86,2072.21C6790.79,2110.11 6789.81,2108.04 6823.65,2107.71C6843.85,2107.52 6845.98,2107.33 6847.90,2105.60ZM3901.14,2078.56C3926.31,2073.22 3937.43,2048.72 3922.56,2031.35C3915.55,2023.16 3913.49,2022.70 3880.00,2021.91C3838.81,2020.94 3841.75,2018.63 3842.20,2051.60C3842.61,2081.73 3840.60,2079.85 3872.50,2079.92C3887.77,2079.95 3896.53,2079.53 3901.14,2078.56ZM6479.59,2078.92C6500.69,2075.99 6511.49,2065.66 6511.40,2048.50C6511.29,2026.94 6499.10,2021.06 6454.40,2021.02C6424.93,2020.99 6426.00,2019.93 6426.00,2049.30C6426.00,2079.35 6425.15,2078.25 6449.00,2079.06C6458.07,2079.36 6466.93,2079.70 6468.68,2079.81C6470.43,2079.91 6475.34,2079.52 6479.59,2078.92ZM1848.00,2010.91C1822.13,2009.58 1769.26,2004.47 1745.50,2000.99C1697.89,1994.02 1671.75,1989.56 1640.00,1982.99C1599.90,1974.68 1538.18,1960.29 1513.50,1953.48C1506.35,1951.51 1490.83,1947.26 1479.00,1944.03C1467.17,1940.81 1450.08,1935.93 1441.00,1933.18C1431.92,1930.43 1409.88,1923.83 1392.00,1918.51C1374.12,1913.19 1352.08,1906.43 1343.00,1903.49C1333.92,1900.56 1321.10,1896.52 1314.50,1894.51C1307.90,1892.51 1269.20,1879.91 1228.50,1866.53C1065.32,1812.87 1055.12,1809.59 1007.00,1795.16C966.45,1783.00 956.06,1780.14 935.50,1775.48C856.17,1757.47 806.08,1748.98 753.00,1744.52C748.88,1744.17 742.12,1743.47 738.00,1742.95C707.35,1739.14 619.41,1736.78 588.00,1738.93C578.38,1739.59 564.42,1740.53 557.00,1741.03C492.31,1745.35 443.32,1753.53 362.96,1773.42C335.66,1780.18 327.24,1782.67 275.00,1799.49C230.22,1813.91 228.95,1813.56 262.12,1795.94C434.50,1704.34 652.60,1658.34 859.00,1670.06C915.67,1673.28 982.41,1681.26 1030.00,1690.51C1039.62,1692.38 1054.70,1695.25 1063.50,1696.88C1072.30,1698.52 1089.40,1702.11 1101.50,1704.87C1166.72,1719.74 1163.18,1718.83 1233.00,1738.61C1297.08,1756.77 1317.04,1762.85 1374.00,1781.51C1391.33,1787.19 1415.85,1795.04 1428.50,1798.95C1441.15,1802.86 1471.30,1812.56 1495.50,1820.51C1614.20,1859.47 1712.76,1888.42 1767.50,1900.41C1776.30,1902.34 1793.17,1906.18 1805.00,1908.95C1839.50,1917.04 1893.60,1926.97 1924.66,1930.91C1939.58,1932.80 1947.09,1933.53 1989.50,1937.20C2080.02,1945.03 2196.18,1934.18 2297.70,1908.39C2367.96,1890.54 2367.07,1890.19 2319.39,1916.87C2299.08,1928.24 2242.36,1952.25 2210.00,1963.19C2096.75,2001.45 1975.48,2017.43 1848.00,2010.91ZM4803.01,1877.44C4764.35,1873.61 4727.02,1865.62 4701.34,1855.67C4602.08,1817.24 4526.42,1748.37 4481.25,1655.33C4470.76,1633.71 4470.84,1633.25 4488.34,1618.24C4493.93,1613.44 4501.22,1607.04 4504.53,1604.01C4507.85,1600.98 4515.28,1594.38 4521.03,1589.35C4526.79,1584.32 4537.30,1575.10 4544.40,1568.85C4574.28,1542.55 4581.24,1536.87 4613.50,1512.50C4632.85,1497.88 4662.44,1480.98 4681.71,1473.55C4698.21,1467.19 4699.53,1468.13 4702.84,1488.63C4728.46,1646.91 4924.21,1708.54 5039.87,1594.74C5058.90,1576.01 5081.17,1541.05 5087.48,1520.00C5090.11,1511.22 5094.33,1502.83 5095.27,1504.52C5097.06,1507.71 5097.90,1561.96 5097.94,1676.50C5097.99,1796.95 5098.01,1796.40 5093.18,1797.46C5091.65,1797.80 5079.85,1804.37 5066.95,1812.08C4980.08,1863.97 4890.68,1886.11 4803.01,1877.44ZM1714.41,1690.53C1701.99,1688.28 1700.83,1686.80 1699.08,1671.00C1692.58,1611.98 1661.41,1567.03 1609.65,1542.04C1541.18,1508.96 1450.40,1532.02 1400.68,1595.11C1391.80,1606.39 1386.88,1608.34 1377.16,1604.45C1359.54,1597.40 1399.56,1550.12 1443.89,1525.62C1573.80,1453.81 1728.49,1524.94 1737.19,1660.50C1739.20,1691.69 1736.97,1694.63 1714.41,1690.53ZM437.31,1685.99C424.65,1680.89 440.69,1623.29 464.73,1587.50C552.03,1457.59 756.91,1476.94 811.60,1620.26C822.51,1648.85 821.04,1654.55 802.95,1653.84C791.20,1653.38 790.11,1652.35 785.36,1637.13C764.37,1569.90 685.37,1522.09 613.09,1532.88C541.41,1543.59 485.82,1595.49 467.44,1668.87C463.00,1686.64 462.60,1687.02 449.19,1686.94C443.86,1686.90 438.51,1686.48 437.31,1685.99ZM344.50,1683.97C307.91,1681.91 292.96,1674.65 299.45,1662.10C303.08,1655.07 309.13,1654.31 316.46,1659.97C323.97,1665.77 328.14,1667.17 339.57,1667.75C355.56,1668.57 357.31,1666.11 349.57,1653.64C347.14,1649.71 342.12,1639.53 338.42,1631.00C327.54,1605.90 326.39,1604.65 310.53,1600.53C297.65,1597.19 297.21,1595.81 296.75,1557.50L296.52,1538.50L299.72,1529.30C305.84,1511.76 318.54,1489.40 326.69,1481.85C328.78,1479.90 334.55,1474.51 339.50,1469.85C389.65,1422.73 519.92,1378.60 663.90,1359.97C673.43,1358.74 677.16,1356.95 702.70,1341.40C714.36,1334.31 735.73,1321.70 750.20,1313.39C834.31,1265.07 878.59,1244.00 896.04,1244.00C896.46,1244.00 898.66,1242.46 900.92,1240.57C909.67,1233.26 939.49,1224.83 977.40,1218.95C1041.47,1209.02 1045.77,1208.61 1125.00,1204.98C1148.38,1203.91 1169.07,1202.57 1170.99,1202.02C1176.33,1200.46 1189.82,1200.80 1209.59,1202.97C1219.44,1204.05 1232.45,1205.21 1238.50,1205.54C1244.55,1205.88 1252.88,1206.77 1257.00,1207.53C1263.47,1208.72 1276.31,1209.52 1319.00,1211.39C1324.48,1211.63 1329.63,1212.55 1333.50,1213.97C1338.95,1215.97 1343.48,1217.04 1365.50,1221.48C1402.27,1228.90 1469.22,1245.60 1473.53,1248.43C1475.82,1249.93 1476.00,1250.52 1475.43,1254.80C1474.50,1261.86 1475.65,1262.50 1532.50,1286.70C1543.50,1291.38 1558.32,1297.89 1565.43,1301.18C1572.55,1304.46 1586.27,1310.53 1595.93,1314.66C1617.43,1323.86 1658.48,1343.82 1671.16,1351.25C1682.34,1357.80 1686.90,1359.30 1702.00,1361.44C1708.33,1362.34 1718.90,1363.94 1725.50,1365.00C1732.10,1366.07 1744.92,1368.08 1754.00,1369.49C1778.41,1373.27 1794.22,1375.84 1806.00,1377.96C1811.78,1378.99 1822.12,1380.82 1829.00,1382.02C1888.56,1392.41 1886.18,1397.04 1816.41,1406.50C1751.26,1415.33 1460.30,1417.53 1434.63,1409.38C1427.16,1407.01 1456.42,1403.99 1511.00,1401.48C1529.42,1400.63 1551.70,1399.28 1560.50,1398.47C1569.30,1397.67 1583.03,1396.54 1591.00,1395.96C1624.24,1393.58 1638.12,1390.53 1647.00,1383.67C1650.03,1381.33 1655.42,1377.67 1659.00,1375.53C1669.05,1369.52 1672.81,1366.08 1672.96,1362.75C1673.18,1358.21 1670.59,1357.92 1636.23,1358.59C1592.14,1359.46 1595.95,1360.66 1532.50,1325.93C1505.30,1311.04 1465.26,1290.59 1444.55,1280.99C1422.79,1270.91 1420.13,1267.30 1430.75,1262.24C1441.94,1256.91 1437.04,1255.00 1403.28,1251.53C1394.91,1250.68 1382.08,1249.06 1374.78,1247.94C1277.71,1233.06 1251.33,1230.44 1176.50,1228.26C1127.40,1226.83 1090.14,1227.47 1092.38,1229.71C1093.71,1231.05 1113.95,1232.85 1134.50,1233.46C1190.67,1235.13 1258.93,1242.77 1310.00,1253.10C1338.69,1258.91 1350.15,1262.94 1372.00,1274.93C1405.84,1293.49 1410.30,1296.56 1441.26,1322.71C1453.50,1333.04 1467.11,1344.50 1471.50,1348.16C1496.66,1369.10 1494.20,1372.06 1449.23,1375.00C1440.03,1375.60 1428.45,1376.77 1423.50,1377.61C1418.55,1378.45 1407.30,1379.55 1398.50,1380.05C1389.70,1380.56 1380.70,1381.21 1378.50,1381.50C1372.32,1382.30 1335.36,1384.85 1306.00,1386.49C1291.42,1387.31 1269.15,1388.66 1256.50,1389.49C1243.85,1390.32 1224.28,1391.46 1213.00,1392.03C1201.72,1392.59 1186.42,1393.50 1179.00,1394.06C1171.58,1394.61 1152.90,1395.70 1137.50,1396.47C1093.40,1398.70 1070.46,1400.14 1034.00,1402.95C1027.12,1403.49 1006.65,1404.85 988.50,1405.99C970.35,1407.12 946.50,1408.70 935.50,1409.49C924.50,1410.27 909.20,1411.18 901.50,1411.51C863.24,1413.12 857.25,1414.08 852.88,1419.31L850.22,1422.50L823.36,1423.22C800.86,1423.83 741.92,1427.83 731.50,1429.46C729.85,1429.72 718.15,1430.86 705.50,1432.01C692.85,1433.15 681.83,1434.27 681.00,1434.50C680.17,1434.72 673.88,1435.38 667.00,1435.96C660.12,1436.54 647.98,1437.69 640.00,1438.51C632.02,1439.32 616.50,1440.90 605.50,1442.00C594.50,1443.11 578.08,1444.89 569.00,1445.95C553.22,1447.81 542.51,1448.76 511.50,1451.05C503.80,1451.63 495.48,1452.63 493.00,1453.30C487.34,1454.81 472.27,1454.67 470.68,1453.08C468.88,1451.28 470.98,1450.43 487.00,1446.51C494.98,1444.56 505.77,1441.89 511.00,1440.58C545.20,1432.00 600.71,1422.42 665.00,1414.00C673.52,1412.88 687.25,1411.08 695.50,1409.99C712.24,1407.78 735.92,1404.96 758.50,1402.48C812.56,1396.55 813.77,1396.14 802.68,1387.44C793.58,1380.31 790.84,1372.13 794.90,1364.21C799.98,1354.30 854.70,1309.95 887.00,1289.56C893.88,1285.22 903.33,1279.12 908.00,1276.00C920.68,1267.54 936.38,1259.14 956.50,1250.05C966.40,1245.58 976.52,1240.97 979.00,1239.80L983.50,1237.67L980.00,1236.83C967.18,1233.73 927.68,1240.59 927.18,1246.00C926.66,1251.58 924.22,1253.22 894.58,1267.95C845.07,1292.55 783.14,1331.01 755.37,1354.40C741.37,1366.18 743.23,1365.60 725.00,1363.92C698.83,1361.52 697.55,1361.65 682.70,1368.36C675.59,1371.57 667.36,1374.54 664.20,1375.03C628.67,1380.57 599.66,1386.20 558.00,1395.66C478.50,1413.70 403.68,1442.58 367.29,1469.28C361.12,1473.80 353.52,1479.30 350.40,1481.50C341.59,1487.71 332.00,1502.02 332.00,1508.97L332.00,1512.00L339.00,1512.12C342.85,1512.19 349.94,1512.32 354.75,1512.40C363.95,1512.55 365.24,1512.99 375.69,1519.50C387.41,1526.81 407.90,1522.63 421.20,1510.23C468.24,1466.35 485.12,1454.05 490.35,1459.83C494.28,1464.18 492.72,1466.32 473.99,1482.22C466.56,1488.52 456.50,1498.02 451.64,1503.32C416.90,1541.16 387.63,1550.55 366.28,1530.69C356.81,1521.87 354.84,1521.00 344.50,1521.00C336.68,1521.00 334.87,1520.68 332.64,1518.93C325.60,1513.39 313.47,1529.66 311.95,1546.69C308.58,1584.39 310.40,1592.04 323.29,1594.46C338.08,1597.23 340.50,1600.35 364.60,1647.58C384.91,1687.39 385.53,1686.28 344.50,1683.97ZM1811.00,1673.20C1811.00,1672.67 1814.02,1670.73 1817.71,1668.90C1846.15,1654.75 1847.38,1648.46 1821.69,1648.56C1800.91,1648.64 1796.90,1649.81 1788.93,1658.16C1775.64,1672.08 1777.80,1664.23 1799.93,1618.16C1821.37,1573.54 1819.11,1575.78 1852.50,1566.10C1884.46,1556.84 1884.99,1556.60 1887.05,1550.36C1889.67,1542.40 1885.94,1516.73 1880.51,1505.45C1875.32,1494.66 1871.21,1490.41 1864.49,1488.91C1857.21,1487.28 1852.13,1484.26 1848.67,1479.49C1844.54,1473.79 1833.51,1455.70 1829.28,1447.68C1824.39,1438.43 1821.37,1436.34 1809.36,1433.92C1792.29,1430.49 1798.13,1427.11 1826.63,1423.93C1831.83,1423.36 1838.99,1421.78 1842.56,1420.44C1868.54,1410.66 1882.95,1428.78 1888.01,1477.57C1889.08,1487.92 1891.30,1493.45 1897.99,1502.45C1904.77,1511.56 1905.74,1516.07 1906.12,1540.56C1906.34,1554.34 1906.31,1554.58 1903.08,1561.87C1899.05,1570.98 1894.81,1590.43 1895.21,1597.96C1895.47,1603.01 1895.24,1603.72 1892.61,1605.96C1886.48,1611.17 1883.92,1623.21 1887.90,1628.12C1895.43,1637.43 1857.18,1665.35 1829.32,1670.88C1814.36,1673.86 1811.00,1674.28 1811.00,1673.20ZM1843.14,1635.09C1865.91,1631.32 1871.18,1628.32 1873.83,1617.64C1887.00,1564.58 1886.79,1563.97 1858.29,1572.57C1840.90,1577.81 1840.84,1577.86 1827.40,1599.50C1801.08,1641.89 1801.15,1642.06 1843.14,1635.09ZM1658.21,1628.44C1634.92,1589.26 1602.12,1564.36 1556.50,1551.25C1540.24,1546.57 1549.32,1544.28 1571.30,1547.50C1615.17,1553.93 1643.30,1576.45 1660.01,1618.52C1664.89,1630.80 1663.66,1637.60 1658.21,1628.44ZM735.65,1609.17C708.36,1578.40 683.09,1563.63 641.20,1553.96C615.49,1548.02 645.85,1546.58 673.45,1552.43C703.87,1558.87 732.87,1580.22 745.52,1605.50C754.44,1623.31 749.74,1625.05 735.65,1609.17ZM4456.70,1587.98C4450.22,1582.88 4438.70,1528.54 4435.02,1485.72C4433.20,1464.53 4433.69,1463.75 4456.60,1451.60C4473.14,1442.83 4478.15,1439.85 4511.77,1418.70C4539.01,1401.57 4547.85,1395.41 4577.50,1373.00C4625.16,1336.96 4642.69,1323.60 4647.00,1320.04C4666.37,1304.07 4731.15,1260.05 4760.00,1243.27C4852.97,1189.19 4966.53,1165.92 5080.72,1177.56L5098.94,1179.42L5099.63,1183.96C5100.99,1193.01 5097.98,1424.76 5096.43,1429.87C5095.85,1431.75 5094.53,1428.92 5089.89,1415.87C5033.17,1256.35 4820.35,1229.53 4729.90,1370.50C4719.12,1387.30 4716.86,1389.61 4704.90,1396.00C4692.73,1402.51 4674.81,1414.08 4661.82,1423.84C4652.02,1431.20 4645.26,1437.19 4613.73,1466.50C4537.36,1537.50 4540.39,1534.83 4511.47,1556.59C4472.60,1585.84 4461.83,1592.01 4456.70,1587.98ZM1279.26,1588.06C1269.00,1585.52 1269.87,1582.61 1288.59,1557.00C1320.62,1513.20 1357.72,1481.94 1399.75,1463.35C1419.58,1454.57 1417.79,1462.18 1396.26,1478.15C1360.47,1504.68 1320.78,1544.66 1301.25,1573.84C1291.76,1588.01 1288.26,1590.28 1279.26,1588.06ZM1867.43,1474.43C1868.29,1473.56 1869.04,1472.78 1869.08,1472.68C1869.70,1471.32 1871.44,1439.84 1871.00,1438.07C1869.27,1431.15 1844.35,1427.55 1838.53,1433.38C1835.00,1436.91 1835.17,1437.32 1847.80,1456.82C1860.34,1476.19 1863.15,1478.71 1867.43,1474.43ZM1033.21,1460.93C1020.43,1459.27 1005.00,1454.66 1005.00,1452.50C1005.00,1450.18 1007.57,1449.08 1019.97,1446.05C1048.35,1439.12 1060.00,1438.64 1094.41,1443.01C1108.73,1444.82 1105.93,1451.46 1090.00,1453.45C1086.97,1453.83 1079.10,1455.45 1072.50,1457.05C1052.68,1461.86 1045.68,1462.55 1033.21,1460.93ZM1331.40,1449.57C1309.19,1443.91 1307.94,1440.36 1327.01,1437.05C1330.58,1436.43 1337.66,1434.99 1342.74,1433.84C1354.09,1431.28 1367.05,1431.63 1377.50,1434.79C1381.35,1435.95 1387.09,1437.40 1390.25,1438.02C1403.18,1440.54 1400.93,1444.79 1385.00,1447.94C1379.22,1449.08 1371.58,1450.68 1368.00,1451.49C1357.16,1453.94 1346.29,1453.37 1331.40,1449.57ZM1308.00,1421.97C1301.12,1421.52 1287.17,1420.69 1277.00,1420.11C1256.75,1418.96 1225.91,1416.56 1211.00,1414.99C1205.78,1414.43 1199.03,1413.95 1196.00,1413.92C1189.10,1413.84 1185.16,1412.55 1189.00,1411.63C1198.09,1409.43 1302.48,1408.33 1336.37,1410.07C1368.59,1411.72 1370.60,1412.50 1359.00,1418.91L1352.50,1422.50L1336.50,1422.64C1327.70,1422.71 1314.88,1422.41 1308.00,1421.97ZM4438.56,1411.78C4432.73,1403.47 4446.16,1335.22 4460.88,1298.30C4466.36,1284.58 4477.60,1259.56 4481.25,1253.00C4570.66,1092.16 4751.01,1008.83 4930.56,1045.41C4980.90,1055.66 5030.35,1076.05 5077.31,1105.90C5090.27,1114.14 5095.30,1116.95 5097.14,1116.98C5101.00,1117.03 5102.01,1152.65 5098.25,1156.08C5097.84,1156.46 5092.10,1155.95 5085.50,1154.95C4970.85,1137.52 4854.82,1158.00 4755.59,1213.19C4711.89,1237.49 4687.08,1254.71 4614.30,1311.25C4607.05,1316.89 4594.00,1327.03 4585.30,1333.78C4523.26,1382.01 4446.34,1422.89 4438.56,1411.78ZM865.91,1395.47C885.48,1392.29 887.43,1388.04 869.33,1388.01C855.13,1387.99 854.60,1386.55 866.75,1380.95C903.60,1363.95 887.22,1332.48 847.50,1343.96C812.55,1354.06 801.82,1378.31 829.56,1384.48C837.10,1386.16 839.45,1387.95 837.13,1390.27C831.01,1396.39 844.84,1398.88 865.91,1395.47ZM931.00,1386.98C954.55,1385.13 970.11,1383.86 992.50,1381.97C1013.77,1380.18 1033.15,1379.07 1071.50,1377.45C1095.12,1376.45 1092.63,1379.16 1106.53,1339.34C1130.11,1271.74 1131.51,1269.00 1142.63,1269.00C1153.27,1269.00 1153.58,1270.57 1147.62,1294.16C1145.21,1303.70 1141.84,1317.35 1140.12,1324.50C1138.41,1331.65 1135.21,1344.03 1133.01,1352.00C1128.39,1368.76 1128.26,1370.26 1131.12,1373.12L1133.25,1375.25L1207.87,1374.72C1279.73,1374.22 1313.94,1373.01 1342.00,1370.00C1356.06,1368.49 1376.67,1367.17 1412.50,1365.49C1465.18,1363.01 1465.08,1362.10 1407.58,1317.66C1378.91,1295.51 1377.81,1294.83 1371.08,1295.20L1365.66,1295.50L1361.58,1288.71C1356.73,1280.64 1353.03,1278.47 1337.50,1274.60C1304.91,1266.48 1262.65,1259.83 1203.39,1253.49C1150.28,1247.82 1042.92,1247.36 1004.00,1252.64C974.42,1256.66 931.21,1276.84 887.50,1307.05C850.20,1332.82 849.43,1334.01 869.00,1335.51C880.73,1336.40 884.50,1337.55 888.95,1341.58C898.22,1349.95 899.63,1368.75 891.94,1381.25C886.98,1389.31 892.00,1390.05 931.00,1386.98ZM1385.73,1340.98C1381.25,1333.34 1375.20,1319.69 1374.42,1315.50C1373.07,1308.15 1376.33,1313.12 1382.95,1328.47C1389.22,1342.99 1390.62,1349.33 1385.73,1340.98Z"/></svg>